<?xml version="1.0" encoding="utf-8"?>
<!-- Svg Vector Icons : http://www.onlinewebfonts.com/icon -->
<!DOCTYPE svg PUBLIC "-//W3C//DTD SVG 1.1//EN" "http://www.w3.org/Graphics/SVG/1.1/DTD/svg11.dtd">
<svg version="1.1" xmlns="http://www.w3.org/2000/svg" xmlns:xlink="http://www.w3.org/1999/xlink" x="0px" y="0px" viewBox="0 0 1000 1000" enable-background="new 0 0 1000 1000" xml:space="preserve">
<metadata> Svg Vector Icons : http://www.onlinewebfonts.com/icon </metadata>
<g><g transform="translate(0.000000,512.000000) scale(0.100000,-0.100000)"><path d="M4986.6,4996.1c-197.2-65.1-338.8-187.6-421.2-369.5c-42.1-91.9-53.6-101.5-107.2-101.5c-80.4,0-239.3-76.6-304.4-145.5c-168.5-181.9-174.2-465.2-9.6-650.9c90-103.4,185.7-155.1,315.9-172.3c91.9-11.5,101.5-7.7,157,45.9c63.2,65.1,70.8,112.9,28.7,195.3c-28.7,55.5-44,63.2-157,86.1c-130.2,26.8-181.9,180-90,269.9c49.8,51.7,53.6,51.7,258.4,15.3c55.5-9.6,78.5-1.9,120.6,34.5c45.9,38.3,55.5,67,67,174.2c7.7,80.4,26.8,147.4,51.7,180c47.9,67,187.6,139.7,266.1,139.7c88.1,0,224-76.6,268-151.2c61.3-103.4,135.9-174.2,187.6-174.2c24.9,0,86.1,32.5,135.9,70.8c78.5,61.3,109.1,72.7,208.7,78.5c99.6,5.8,128.3,0,183.8-38.3c97.6-67,139.7-135.9,151.2-243.1c11.5-120.6-17.2-193.3-112.9-277.6c-55.5-51.7-97.6-70.8-174.2-80.4c-124.4-17.2-187.6-72.7-187.6-170.4c0-126.3,107.2-183.8,275.7-145.5c212.5,49.8,369.5,168.5,463.3,350.3c74.7,143.6,86.1,363.7,26.8,516.9c-49.8,135.9-176.1,277.6-308.2,350.3c-134,70.8-361.8,90-513,38.3l-97.6-32.5l-70.8,63.2C5438.4,4992.3,5170.4,5055.5,4986.6,4996.1z"/><path d="M6847.3,4802.8c-61.3-59.3-61.3-143.6-1.9-212.5c134-158.9,367.5,45.9,239.3,210.6C7031.1,4869.8,6914.3,4871.7,6847.3,4802.8z"/><path d="M5220.1,3826.5c-124.4-124.4,17.2-331.2,174.2-254.6c109.1,51.7,132.1,178,45.9,264.2C5384.8,3891.6,5279.5,3885.8,5220.1,3826.5z"/><path d="M4241.9,3177.5c-40.2-34.5-53.6-61.3-53.6-116.8c0-55.5,13.4-82.3,53.6-116.8c28.7-24.9,65.1-45.9,80.4-45.9c32.5,0,28.7-160.8-13.4-679.6c-45.9-574.3-47.9-516.9,7.7-572.4c63.2-63.2,147.4-65.1,214.4-5.8c36.4,30.6,53.6,70.8,67,157c19.1,134,49.8,507.3,68.9,857.6l11.5,243.1H5000h319.7l13.4-243.1c36.4-698.7,68.9-949.5,128.3-1014.6c90-95.7,266.1-24.9,266.1,107.2c0,32.5-11.5,195.3-26.8,359.9c-15.3,166.5-32.5,411.6-40.2,547.5c-11.5,210.6-7.6,243.1,17.2,243.1c15.3,0,51.7,21.1,80.4,45.9c40.2,34.5,53.6,61.3,53.6,116.8c0,55.5-13.4,82.3-53.6,116.8l-51.7,45.9H5000h-706.4L4241.9,3177.5z"/><path d="M4645.8,1403c-507.3-72.7-1037.6-352.2-1525.7-802.1l-166.5-153.2h-786.8c-861.4,0-884.4-1.9-913.1-111c-15.3-59.3,141.7-1206,174.2-1271.1c28.7-57.4,116.8-97.6,174.2-84.2c68.9,17.2,124.4,86.2,124.4,157c0,51.7-93.8,740.8-124.4,922.7l-11.5,61.3h536h536L2509.4-73c-206.7-266.1-505.4-716-763.8-1154.3c-118.7-199.1-281.4-474.7-361.8-610.7c-80.4-134-195.3-300.6-258.4-367.6C958.8-2389.3,643-2617.1,371.1-2753c-128.3-63.2-243.1-130.2-252.7-149.3c-32.5-59.3-21.1-128.3,26.8-183.8c67-78.5,143.6-70.8,363.7,36.4c417.3,201,817.4,526.4,1020.3,827c42.1,63.2,208.7,338.8,369.5,612.6C2498-587.9,2921-17.5,3382.4,394.1c354.2,317.8,744.7,541.7,1114.1,641.3c166.5,45.9,222.1,51.7,503.5,51.7c281.4,0,336.9-5.7,503.5-51.7c369.5-99.6,760-323.5,1114.1-641.3c463.3-413.5,882.5-982.1,1483.6-2004.3c160.8-273.7,333.1-557.1,382.9-631.7c139.7-206.7,430.7-469,727.4-656.6c195.3-122.5,457.5-241.2,532.2-241.2c116.8,0,193.4,134,137.8,239.3c-11.5,19.1-103.4,74.7-204.8,122.5c-394.3,183.8-767.6,484.3-949.5,761.9c-57.4,86.1-212.5,344.6-346.5,574.3c-384.8,660.4-616.4,1014.6-915,1397.5l-130.2,166.5h536h537.9L8397.9,61c-32.5-187.6-124.4-871-124.4-922.7c1.9-101.5,91.9-176.1,191.4-155.1c107.2,23,112.9,45.9,202.9,664.3c46,319.7,84.2,608.7,84.2,643.2c0,42.1-15.3,78.5-47.9,109.1l-45.9,47.9h-811.7h-809.8l-67,68.9c-116.8,122.5-403.9,356.1-582,472.8c-317.8,208.7-656.6,346.5-999.3,405.8C5212.5,1425.9,4833.4,1429.8,4645.8,1403z"/><path d="M4684.1,101.2c-306.3-45.9-671.9-185.7-920.8-358c-631.7-430.7-1114.1-1209.9-1431.9-2308.7c-149.3-514.9-298.6-1353.4-260.4-1458.7c42.1-109.1,214.4-134,277.6-40.2c15.3,24.9,42.1,141.7,57.4,262.3C2612.8-2310.8,3152.7-1124,3868.6-586c382.9,289.1,865.3,421.2,1338.1,365.6c470.9-53.6,863.4-258.4,1213.7-631.7c570.5-608.7,1008.9-1711.4,1171.6-2950c15.3-116.8,42.1-233.6,57.4-258.4c65.1-97.6,237.4-74.7,279.5,38.3c32.5,86.1-76.6,763.8-202.9,1253.9C7281.9-1057,6439.6-59.6,5296.7,103.1C5137.8,124.2,4844.9,124.2,4684.1,101.2z"/><path d="M4705.2-559.2c-359.9-65.1-698.7-283.3-913.1-587.7l-93.8-134v-1364.9c0-750.4,5.7-1378.3,11.5-1395.5c32.5-84.2,53.6-86.2,1290.3-86.2c1202.2,0,1221.3,1.9,1276.9,74.7c17.2,23,23,354.2,24.9,1399.4v1368.8l-70.8,105.3c-99.6,151.2-306.3,346.5-459.4,438.4C5455.6-553.5,5086.1-490.3,4705.2-559.2z M5369.5-917.2c126.4-40.2,394.4-195.3,425-245c7.7-9.6-88-17.2-239.3-17.2c-327.3,0-382.9-24.9-382.9-178c0-34.5,17.2-76.6,42.1-103.4c40.2-42.1,49.8-44,402-44h359.9v-497.7v-497.7h-111c-132.1,0-189.5-34.5-206.7-122.5c-21.1-122.5,70.8-202.9,231.6-202.9h86.2v-162.7v-162.7h-765.7h-767.7l-45.9-47.9c-61.3-59.3-61.3-143.6-1.9-214.4l45.9-53.6l767.7-5.7l767.6-5.7v-160.8v-162.7H5000h-976.3v488.2v486.2l604.9,5.7l604.9,5.7l46,53.6c55.5,65.1,59.3,145.5,5.7,212.5l-38.3,49.8h-612.6h-610.7v497.7v497.7h358c340.8,0,359.9,1.9,402,42.1c28.7,26.8,44,63.2,44,103.4c0,155.1-53.6,180-386.7,180h-254.6l47.9,40.2c166.6,135.9,367.5,229.7,564.7,266.1C4948.3-846.4,5208.7-867.4,5369.5-917.2z"/><path d="M4452.5-1849.5c-101.5-40.2-132.1-168.5-63.2-256.5l38.3-49.8H5000h572.4l38.3,49.8c53.6,67,49.8,147.4-5.7,212.5l-46,53.6l-534.1,3.8C4732-1834.2,4473.5-1839.9,4452.5-1849.5z"/><path d="M174-4477.8c-88.1-67-95.7-168.5-19.1-245l55.5-55.5h549.4h547.5l45.9,47.9c32.5,30.6,47.9,67,47.9,114.9c0,47.9-15.3,84.2-47.9,114.9l-45.9,47.9H755.9C352-4454.9,196.9-4460.6,174-4477.8z"/><path d="M1791.6-4498.9c-40.2-34.5-53.6-61.2-53.6-116.8c0-55.5,13.4-82.3,53.6-116.8l51.7-46h3484.1h3486l55.5,55.5c72.8,72.7,72.8,141.6,0,214.4l-55.5,55.5h-3486H1843.3L1791.6-4498.9z"/><path d="M9297.7-4500.8c-32.5-30.6-47.9-67-47.9-109.1c1.9-134,72.7-168.5,335-168.5c199.1,0,204.8,1.9,260.3,55.5c59.4,59.3,68.9,112.9,32.5,179.9c-42.1,80.4-72.7,88.1-308.2,90C9355.1-4453,9341.7-4454.9,9297.7-4500.8z"/></g></g>
</svg>